<svg width="51" height="52" viewBox="0 0 51 52" fill="none" xmlns="http://www.w3.org/2000/svg">
<path d="M25.5057 13.1123C18.2695 13.1123 12.4328 18.949 12.4328 26.1851C12.4328 33.4213 18.2695 39.258 25.5057 39.258C32.7418 39.258 38.5785 33.4213 38.5785 26.1851C38.5785 18.949 32.7418 13.1123 25.5057 13.1123ZM25.5057 34.6842C20.8295 34.6842 17.0066 30.8727 17.0066 26.1851C17.0066 21.4976 20.8181 17.6861 25.5057 17.6861C30.1933 17.6861 34.0047 21.4976 34.0047 26.1851C34.0047 30.8727 30.1819 34.6842 25.5057 34.6842ZM42.1625 12.5775C42.1625 14.2728 40.7972 15.6267 39.1133 15.6267C37.418 15.6267 36.0641 14.2614 36.0641 12.5775C36.0641 10.8936 37.4294 9.52834 39.1133 9.52834C40.7972 9.52834 42.1625 10.8936 42.1625 12.5775ZM50.8208 15.6722C50.6274 11.5877 49.6944 7.96961 46.7021 4.98868C43.7212 2.00775 40.1031 1.07479 36.0186 0.869993C31.8089 0.631064 19.1911 0.631064 14.9814 0.869993C10.9083 1.06341 7.29018 1.99637 4.29788 4.9773C1.30558 7.95823 0.383993 11.5763 0.179197 15.6609C-0.0597323 19.8706 -0.0597323 32.4883 0.179197 36.698C0.372616 40.7826 1.30558 44.4006 4.29788 47.3816C7.29018 50.3625 10.8969 51.2955 14.9814 51.5003C19.1911 51.7392 31.8089 51.7392 36.0186 51.5003C40.1031 51.3068 43.7212 50.3739 46.7021 47.3816C49.683 44.4006 50.616 40.7826 50.8208 36.698C51.0597 32.4883 51.0597 19.8819 50.8208 15.6722ZM45.3823 41.2149C44.4949 43.4449 42.7769 45.1629 40.5355 46.0618C37.1791 47.3929 29.2148 47.0858 25.5057 47.0858C21.7966 47.0858 13.8209 47.3816 10.4759 46.0618C8.2459 45.1743 6.52789 43.4563 5.62906 41.2149C4.29788 37.8585 4.60508 29.8942 4.60508 26.1851C4.60508 22.476 4.30926 14.5003 5.62906 11.1553C6.51651 8.92532 8.23452 7.20731 10.4759 6.30848C13.8323 4.9773 21.7966 5.2845 25.5057 5.2845C29.2148 5.2845 37.1905 4.98868 40.5355 6.30848C42.7655 7.19593 44.4835 8.91395 45.3823 11.1553C46.7135 14.5117 46.4063 22.476 46.4063 26.1851C46.4063 29.8942 46.7135 37.8699 45.3823 41.2149Z" fill="#0F4382"/>
</svg>
