<svg width="54" height="45" viewBox="0 0 54 45" fill="none" xmlns="http://www.w3.org/2000/svg">
<path d="M48.4494 11.7517C48.4837 12.2313 48.4837 12.7111 48.4837 13.1908C48.4837 27.8215 37.3479 44.6794 16.995 44.6794C10.7246 44.6794 4.89978 42.8634 0 39.7112C0.890898 39.8139 1.74741 39.8482 2.67259 39.8482C7.84638 39.8482 12.6092 38.1008 16.4125 35.1198C11.547 35.017 7.46954 31.8304 6.06469 27.4446C6.75003 27.5473 7.43526 27.6159 8.15488 27.6159C9.1485 27.6159 10.1422 27.4788 11.0673 27.2391C5.99624 26.2111 2.19281 21.7568 2.19281 16.3773V16.2403C3.66611 17.0627 5.37946 17.5766 7.19532 17.6451C4.21434 15.6577 2.26136 12.2656 2.26136 8.42801C2.26136 6.37221 2.80949 4.48768 3.76894 2.843C9.21695 9.55875 17.4061 13.9445 26.5888 14.4242C26.4175 13.6019 26.3147 12.7454 26.3147 11.8888C26.3147 5.7897 31.2487 0.821472 37.382 0.821472C40.5685 0.821472 43.4467 2.15777 45.4683 4.3164C47.9695 3.83673 50.368 2.91155 52.4924 1.64381C51.67 4.21368 49.9226 6.37231 47.6269 7.74278C49.8541 7.50305 52.0127 6.88616 54 6.02964C52.4926 8.22245 50.608 10.1754 48.4494 11.7517Z" fill="#0F4382"/>
</svg>
